<svg xmlns="http://www.w3.org/2000/svg" viewBox="0 0 134.16 135.95"><defs><style>.cls-1{fill:#0037ff;}.cls-2{fill:#002ba5;}</style></defs><title>Asset 1</title><g id="Layer_2" data-name="Layer 2"><g id="Layer_1-2" data-name="Layer 1"><path class="cls-1" d="M104.33,95a11,11,0,0,1-.48,3.24,11.18,11.18,0,0,1-10.71,7.94H48.46a3.46,3.46,0,0,0-.58,0l-.31,0A11.18,11.18,0,0,1,37.21,95V68.24L57,60.7a11.19,11.19,0,0,0,2.6-1.41V72.66A11.18,11.18,0,0,0,70.77,83.84H93.14A11.18,11.18,0,0,1,104.33,95Z"/><path class="cls-1" d="M134.16,65.25v59.61a11.18,11.18,0,0,1-9.7,11.09H46.91a11.19,11.19,0,0,1-9.7-11.09V113.63H99.57q.51,0,1,0t1,0a11.18,11.18,0,0,0,10.16-11.14V87.57A11.18,11.18,0,0,0,100.6,76.39H77.14A11.19,11.19,0,0,1,67,65.25V35.47a11.19,11.19,0,0,1,22.37,0v7.41A11.18,11.18,0,0,0,100.6,54.06H123A11.19,11.19,0,0,1,134.16,65.25Z"/><path class="cls-1" d="M118.49,11.58a11.19,11.19,0,0,1-11.24,11.13l-17.84-.09H87.33a13.16,13.16,0,0,0-18.24-.09H67l-7.46,0h-1.2a11.18,11.18,0,0,0-19.92-.11H37.21l-8.26,0L29,11.13A11.18,11.18,0,0,1,37.21.41a10.72,10.72,0,0,1,3-.41L59.58.1,67,.14,89.41.25l18,.09A11.18,11.18,0,0,1,118.49,11.58Z"/><path class="cls-1" d="M59.58,59.29A11.19,11.19,0,0,1,57,60.7L37.21,68.24l-22,8.4a11.18,11.18,0,1,1-8-20.9l30-11.45V27.91a11.19,11.19,0,0,0,22.37,0v8.21l3.87,10.13A11.19,11.19,0,0,1,59.58,59.29Z"/><path class="cls-2" d="M58.28,27.51a9.89,9.89,0,1,1-18.35-5.13,9.57,9.57,0,0,1,1-1.35,9.89,9.89,0,0,1,17.36,6.48Z"/><path class="cls-1" d="M57.31,27a9.4,9.4,0,1,1-17.44-4.88,9.1,9.1,0,0,1,.94-1.28A9.4,9.4,0,0,1,57.31,27Z"/></g></g></svg>